<?xml version="1.0" standalone="no"?>
<!DOCTYPE svg PUBLIC "-//W3C//DTD SVG 20010904//EN"
 "http://www.w3.org/TR/2001/REC-SVG-20010904/DTD/svg10.dtd">
<svg version="1.0" xmlns="http://www.w3.org/2000/svg"
 width="1024.000000pt" height="1024.000000pt" viewBox="0 0 1024.000000 1024.000000"
 preserveAspectRatio="xMidYMid meet">

<g transform="translate(0.000000,1024.000000) scale(0.100000,-0.100000)"
fill="#000000" stroke="none">
<path d="M4585 7146 c-166 -46 -321 -160 -379 -279 -25 -53 -28 -68 -27 -161
0 -92 4 -109 32 -172 32 -70 62 -114 133 -195 85 -95 141 -163 145 -173 2 -6
34 -42 71 -81 37 -38 77 -83 89 -100 12 -16 43 -52 70 -80 26 -27 63 -70 81
-95 19 -25 52 -63 73 -85 22 -22 52 -58 67 -80 16 -22 44 -54 62 -72 19 -18
40 -43 48 -57 12 -23 10 -29 -27 -78 -35 -47 -138 -163 -222 -253 -16 -16 -35
-40 -43 -53 -9 -13 -65 -76 -125 -140 -61 -64 -134 -143 -164 -175 -100 -109
-355 -338 -469 -421 -178 -130 -299 -197 -451 -249 -75 -26 -144 -47 -153 -47
-22 0 -4 43 35 82 24 24 29 37 24 57 -13 56 -93 82 -133 44 -11 -10 -28 -25
-38 -34 -10 -8 -33 -31 -49 -50 -17 -18 -40 -38 -52 -44 -20 -9 -52 -48 -160
-193 -23 -32 -42 -67 -43 -79 0 -23 -4 -22 153 -39 33 -3 107 4 192 21 181 34
459 142 595 230 52 34 60 39 137 84 31 18 69 46 83 61 14 14 70 63 125 107 55
45 144 123 197 175 53 51 105 100 115 109 56 50 248 257 434 469 137 156 161
182 186 203 21 18 22 18 57 -20 19 -21 51 -58 71 -83 46 -57 299 -325 344
-365 19 -16 61 -58 94 -91 l60 -62 66 70 c36 39 67 75 69 82 1 6 -21 31 -49
56 -29 25 -66 60 -83 78 -17 18 -69 72 -116 120 -47 48 -96 103 -110 121 -14
18 -51 58 -83 89 -33 31 -65 69 -72 83 -8 14 -32 44 -54 66 -23 22 -41 47 -41
55 0 8 18 32 41 53 23 22 52 58 66 80 14 22 43 57 64 77 21 21 52 59 70 85 18
27 46 62 62 78 16 17 55 62 86 100 30 39 71 88 91 111 19 22 53 62 75 89 22
26 60 69 84 94 24 25 55 65 70 87 15 23 41 55 58 72 45 46 94 169 100 256 4
55 1 86 -16 141 -27 88 -34 99 -102 163 -73 68 -198 135 -296 158 -119 29
-333 26 -433 -4 -80 -24 -134 -48 -162 -71 -16 -12 -20 -12 -35 1 -30 26 -135
75 -178 83 -22 4 -105 9 -185 10 -126 3 -156 0 -225 -19z m343 -196 c81 -19
147 -47 173 -72 8 -7 26 -21 42 -31 15 -10 27 -24 27 -32 0 -20 5 -19 33 9 38
38 194 111 276 130 91 20 169 20 258 2 77 -17 111 -30 168 -67 53 -35 69 -54
95 -114 33 -76 14 -156 -56 -235 -12 -14 -29 -40 -38 -58 -10 -18 -23 -35 -31
-38 -7 -3 -33 -31 -58 -62 -41 -52 -87 -103 -166 -187 -16 -16 -40 -48 -54
-70 -13 -22 -37 -51 -52 -65 -15 -14 -53 -59 -85 -100 -32 -41 -68 -84 -80
-95 -12 -11 -33 -37 -46 -57 -28 -44 -123 -148 -135 -148 -5 0 -9 7 -9 15 0 8
-13 24 -28 35 -15 12 -46 44 -68 72 -21 28 -56 67 -78 87 -21 20 -59 63 -84
96 -25 33 -70 87 -99 120 -28 33 -75 87 -104 120 -29 33 -84 94 -123 135 -121
127 -226 297 -226 365 1 62 53 141 128 193 36 25 145 60 202 65 102 8 139 6
218 -13z"/>
<path d="M2676 7102 c-3 -5 -8 -27 -10 -48 -7 -49 -34 -249 -46 -329 -5 -33
-13 -96 -19 -140 -6 -44 -16 -107 -21 -140 -39 -244 -52 -325 -61 -356 -5 -20
-16 -79 -24 -130 -8 -52 -26 -157 -40 -234 -14 -77 -30 -169 -36 -205 -18
-116 -11 -107 -86 -118 -38 -6 -129 -18 -203 -27 -515 -64 -632 -84 -880 -148
-63 -16 -133 -33 -155 -38 -70 -15 -537 -176 -615 -212 -41 -19 -139 -63 -217
-97 -79 -35 -143 -68 -143 -74 0 -6 6 -20 14 -31 7 -11 21 -46 30 -77 9 -31
20 -59 24 -62 12 -7 107 29 210 80 80 39 198 84 412 158 25 8 79 25 120 37 41
12 102 30 135 40 97 30 243 65 345 84 52 9 138 25 190 36 193 37 551 85 665
90 87 3 83 6 74 -53 -16 -101 -41 -243 -56 -323 -22 -112 -30 -155 -52 -275
-10 -58 -29 -153 -42 -212 -12 -60 -20 -110 -17 -113 7 -7 310 -33 324 -28 6
2 14 27 17 56 4 29 20 122 36 207 33 168 52 278 81 465 49 314 52 324 95 325
11 1 52 5 90 10 63 8 628 69 648 70 9 0 2 -75 -14 -170 -22 -126 -53 -369 -53
-420 l-1 -55 90 3 c50 1 118 7 151 13 l61 11 17 76 c8 43 18 99 21 126 3 27 7
51 9 55 2 3 7 40 10 81 4 41 16 124 27 184 10 60 19 113 19 117 0 4 19 10 43
13 175 19 314 40 325 49 8 6 12 41 12 108 l0 99 -32 0 c-18 0 -93 -5 -165 -12
-73 -6 -136 -9 -139 -5 -9 8 40 354 76 542 5 28 12 68 15 90 3 22 8 54 10 72
3 17 2 34 -3 37 -14 8 -296 11 -309 3 -7 -5 -13 -21 -13 -36 0 -15 -7 -72 -16
-127 -16 -106 -26 -175 -43 -320 -14 -118 -48 -285 -60 -297 -8 -8 -139 -25
-321 -43 -30 -2 -120 -12 -200 -20 -80 -8 -169 -17 -197 -20 l-53 -5 5 28 c8
48 56 306 66 353 5 25 18 101 29 170 10 69 28 177 40 240 11 63 25 144 30 180
14 94 36 218 81 443 22 109 37 202 34 207 -6 10 -111 27 -224 35 -46 4 -89 9
-96 11 -7 3 -16 1 -19 -4z"/>
<path d="M6631 6001 c-6 -10 -13 -37 -17 -60 -5 -31 -12 -42 -28 -46 -45 -10
-444 -74 -499 -81 l-59 -7 6 -31 c3 -17 8 -59 12 -94 4 -34 9 -64 13 -66 8 -5
323 38 426 58 44 9 83 16 86 16 3 0 9 -82 12 -182 6 -188 21 -275 75 -428 39
-110 134 -247 195 -280 118 -65 139 -71 241 -78 180 -13 378 45 585 170 34 21
66 38 70 38 4 0 22 16 41 35 18 19 36 33 38 30 2 -2 -5 -23 -16 -47 -11 -24
-35 -77 -52 -118 -18 -41 -39 -88 -47 -105 -9 -16 -27 -60 -42 -96 -26 -64
-80 -139 -101 -139 -5 0 -10 -3 -10 -8 0 -4 -28 -28 -61 -52 -34 -25 -78 -59
-98 -76 -20 -17 -58 -46 -86 -64 -27 -19 -59 -44 -70 -55 -11 -11 -56 -47
-100 -80 -44 -32 -89 -67 -100 -77 -72 -64 -94 -82 -127 -103 -20 -14 -99 -87
-176 -164 -125 -126 -141 -146 -165 -209 -62 -156 -28 -277 98 -361 37 -24 48
-26 145 -26 l105 0 112 58 c62 31 136 77 165 101 29 25 68 58 86 73 36 30 142
165 175 223 11 19 34 60 50 90 16 30 35 62 42 70 13 15 271 537 295 595 12 31
71 80 138 114 21 10 85 51 142 90 58 39 108 71 111 71 4 0 49 26 100 59 52 32
105 62 119 66 14 4 41 21 61 36 20 16 39 29 42 29 2 0 42 21 88 46 46 26 135
74 198 106 62 33 132 71 155 84 69 40 265 134 376 179 58 24 144 61 191 83 98
46 379 142 416 142 33 0 37 18 18 90 -21 82 -51 123 -85 117 -48 -10 -455
-161 -475 -177 -5 -4 -46 -22 -90 -39 -108 -43 -176 -74 -330 -152 -71 -36
-141 -70 -155 -74 -14 -4 -44 -21 -67 -36 -23 -16 -45 -29 -50 -29 -4 0 -19
-6 -33 -13 -14 -8 -61 -33 -105 -56 -44 -24 -93 -53 -110 -65 -16 -12 -50 -33
-75 -46 -61 -32 -77 -41 -134 -78 -28 -18 -54 -32 -59 -32 -5 0 -21 -9 -36
-19 -43 -31 -142 -83 -147 -78 -7 7 33 121 62 178 13 26 44 97 68 156 25 59
71 160 103 223 32 63 69 140 81 170 13 30 48 98 77 150 67 117 83 159 65 170
-7 4 -63 15 -124 25 -61 9 -123 21 -138 25 -34 11 -38 6 -78 -100 -38 -102
-144 -323 -174 -365 -12 -16 -37 -55 -55 -85 -38 -64 -145 -179 -212 -230 -26
-19 -62 -47 -80 -61 -19 -15 -45 -30 -59 -34 -14 -4 -43 -16 -65 -25 -227
-102 -390 -105 -503 -8 -26 22 -51 47 -55 54 -21 37 -78 191 -92 250 -15 66
-21 321 -9 395 l6 36 92 17 c107 19 193 23 296 12 l75 -9 3 106 3 105 -86 7
c-79 7 -216 2 -327 -11 -40 -5 -48 -3 -48 10 0 14 -17 16 -120 16 -106 0 -120
-2 -129 -19z m734 -2058 c-54 -103 -109 -204 -124 -224 -64 -88 -134 -169
-164 -188 -17 -11 -41 -26 -52 -33 -11 -7 -22 -16 -25 -20 -3 -4 -32 -19 -65
-33 -50 -23 -68 -26 -113 -20 -32 4 -55 12 -59 21 -8 23 16 98 41 125 12 13
33 40 47 60 13 20 40 49 59 65 70 57 196 166 230 199 19 18 53 46 76 62 22 15
67 48 99 73 116 90 140 107 144 104 2 -2 -41 -88 -94 -191z"/>
</g>
</svg>
